<svg width="20" height="18" viewBox="0 0 20 18" fill="none" xmlns="http://www.w3.org/2000/svg">
<path d="M14.7948 5.04451L13.4553 3.70509C13.2796 3.52936 12.9947 3.52936 12.8189 3.70509L11.4795 5.04451C11.3038 5.22024 11.3038 5.50517 11.4795 5.68091L12.8189 7.02032C12.9947 7.19606 13.2796 7.19606 13.4553 7.02033L14.7948 5.68091C14.9705 5.50517 14.9705 5.22024 14.7948 5.04451Z" fill="#EBECF1"/>
<mask id="path-2-inside-1_58_1686" fill="white">
<path d="M15.6779 11.7407C16.8999 11.117 17.881 10.1062 18.4679 8.8661C19.0548 7.62601 19.2146 6.22646 18.9221 4.88603C18.6296 3.54559 17.9015 2.33975 16.8514 1.45681C15.8013 0.573867 14.4883 0.0635498 13.1175 0.00555114C11.7468 -0.0524475 10.3954 0.345138 9.27444 1.13622C8.15349 1.9273 7.32609 3.06733 6.92145 4.37826C6.51681 5.6892 6.55772 7.09724 7.03778 8.38248C7.51785 9.66772 8.41004 10.7578 9.57503 11.4825L10.2254 10.4369C9.29142 9.85596 8.57614 8.98203 8.19126 7.95164C7.80639 6.92125 7.77359 5.79241 8.098 4.74141C8.4224 3.69041 9.08575 2.77644 9.98443 2.14222C10.8831 1.508 11.9665 1.18925 13.0655 1.23575C14.1644 1.28225 15.2171 1.69137 16.059 2.39924C16.9009 3.1071 17.4846 4.07385 17.7191 5.14849C17.9535 6.22313 17.8255 7.34517 17.355 8.33937C16.8844 9.33357 16.0979 10.1439 15.1181 10.644L15.6779 11.7407Z"/>
</mask>
<path d="M15.6779 11.7407C16.8999 11.117 17.881 10.1062 18.4679 8.8661C19.0548 7.62601 19.2146 6.22646 18.9221 4.88603C18.6296 3.54559 17.9015 2.33975 16.8514 1.45681C15.8013 0.573867 14.4883 0.0635498 13.1175 0.00555114C11.7468 -0.0524475 10.3954 0.345138 9.27444 1.13622C8.15349 1.9273 7.32609 3.06733 6.92145 4.37826C6.51681 5.6892 6.55772 7.09724 7.03778 8.38248C7.51785 9.66772 8.41004 10.7578 9.57503 11.4825L10.2254 10.4369C9.29142 9.85596 8.57614 8.98203 8.19126 7.95164C7.80639 6.92125 7.77359 5.79241 8.098 4.74141C8.4224 3.69041 9.08575 2.77644 9.98443 2.14222C10.8831 1.508 11.9665 1.18925 13.0655 1.23575C14.1644 1.28225 15.2171 1.69137 16.059 2.39924C16.9009 3.1071 17.4846 4.07385 17.7191 5.14849C17.9535 6.22313 17.8255 7.34517 17.355 8.33937C16.8844 9.33357 16.0979 10.1439 15.1181 10.644L15.6779 11.7407Z" stroke="#E8E8E8" stroke-width="2" mask="url(#path-2-inside-1_58_1686)"/>
<path d="M0.618963 12.0958C0.440164 12.3062 0.465814 12.6218 0.676255 12.8006C0.886696 12.9794 1.20224 12.9537 1.38104 12.7433L1 12.4195L0.618963 12.0958ZM3.25811 9.03242L3.71812 9.22835L3.25811 9.03242ZM3.82263 7.33887L3.42039 7.04188L3.82263 7.33887ZM1 12.4195C1.38104 12.7433 1.38107 12.7432 1.38111 12.7432C1.38114 12.7431 1.38119 12.7431 1.38123 12.743C1.38132 12.7429 1.38143 12.7428 1.38157 12.7426C1.38185 12.7423 1.38223 12.7419 1.3827 12.7413C1.38365 12.7402 1.38499 12.7386 1.38671 12.7366C1.39015 12.7325 1.39512 12.7266 1.40152 12.719C1.41434 12.7037 1.43292 12.6814 1.45663 12.6528C1.50404 12.5955 1.57199 12.5126 1.65528 12.4088C1.82171 12.2013 2.05016 11.9091 2.29871 11.57C2.78929 10.9007 3.38287 10.0154 3.71812 9.22835L3.25811 9.03242L2.7981 8.83648C2.51037 9.51199 1.97489 10.3203 1.49217 10.9789C1.25407 11.3037 1.0348 11.5841 0.875172 11.7831C0.795434 11.8826 0.730773 11.9614 0.686325 12.0151C0.664105 12.042 0.646952 12.0625 0.635507 12.0761C0.629785 12.083 0.625492 12.0881 0.622707 12.0913C0.621315 12.093 0.6203 12.0942 0.619673 12.0949C0.619359 12.0953 0.619142 12.0956 0.619023 12.0957C0.618964 12.0958 0.618929 12.0958 0.618919 12.0958C0.618914 12.0958 0.618925 12.0958 0.618923 12.0958C0.61894 12.0958 0.618963 12.0958 1 12.4195ZM3.25811 9.03242L3.71812 9.22835C3.88042 8.84731 3.92926 8.49369 3.97761 8.25453C4.02697 8.01042 4.08119 7.83046 4.22487 7.63586L3.82263 7.33887L3.42039 7.04188C3.14998 7.40812 3.05853 7.75424 2.99745 8.05635C2.93536 8.3634 2.90899 8.57613 2.7981 8.83648L3.25811 9.03242ZM3.82263 7.33887L4.22487 7.63586C4.32315 7.50275 4.52657 7.35647 4.84673 7.21893C5.15638 7.0859 5.52332 6.98283 5.8856 6.90505C6.24546 6.8278 6.58664 6.77844 6.83879 6.74843C6.96444 6.73348 7.06694 6.72346 7.13731 6.71722C7.17248 6.71411 7.19956 6.71194 7.21742 6.71058C7.22635 6.7099 7.23297 6.70943 7.23714 6.70913C7.23923 6.70899 7.2407 6.70888 7.24154 6.70883C7.24196 6.7088 7.24222 6.70878 7.24233 6.70878C7.24238 6.70877 7.24239 6.70877 7.24236 6.70877C7.24235 6.70877 7.24229 6.70878 7.24229 6.70878C7.24222 6.70878 7.24215 6.70879 7.20979 6.20984C7.17743 5.71088 7.17734 5.71089 7.17724 5.7109C7.17719 5.7109 7.17707 5.71091 7.17698 5.71091C7.17679 5.71093 7.17655 5.71094 7.17628 5.71096C7.17573 5.711 7.17502 5.71104 7.17415 5.7111C7.17241 5.71122 7.17002 5.71138 7.16701 5.71159C7.16099 5.71202 7.15246 5.71263 7.14158 5.71346C7.11981 5.71512 7.08858 5.71762 7.04903 5.72113C6.96998 5.72813 6.85744 5.73916 6.72063 5.75544C6.44787 5.7879 6.07449 5.84172 5.6757 5.92733C5.27934 6.01243 4.84356 6.13192 4.45201 6.30013C4.07097 6.46382 3.6747 6.69744 3.42039 7.04188L3.82263 7.33887Z" fill="#EBECF0"/>
<path d="M1 17.5H8.66226C9.17917 17.5 9.67366 17.3022 10.0453 16.9429C11.4387 15.596 14.8875 12.2451 15.1132 11.8603C15.3964 11.3772 15.3963 10.7644 15.1132 10.1667C14.7729 9.44837 14.2104 9.11792 13.4196 9.03769C12.9117 8.98618 12.2397 9.31272 11.9161 9.49133C11.7877 9.56219 11.6737 9.65452 11.57 9.75819L7.20979 14.1183" stroke="#EBECF0" stroke-linecap="round"/>
</svg>
