<svg width="17" height="17" viewBox="0 0 17 17" fill="none" xmlns="http://www.w3.org/2000/svg">
<path d="M1.02143 12.6755C0.779559 13.927 0.857257 15.9517 0.857257 15.9517C0.857257 15.9517 1.52461 15.0897 1.91302 14.5605C2.45165 13.8265 2.71448 13.3762 3.35215 12.7264C3.53251 12.5426 3.63698 12.4426 3.82846 12.2704C4.50546 11.6617 4.93654 11.3704 5.72356 10.9127C6.42749 10.5033 6.83487 10.2753 7.60848 10.0211C8.49053 9.73129 9.94937 9.60584 9.94937 9.60584L10.0981 12.7264L15.859 6.9517L10.0522 1.19452L10.0511 4.94441L9.58496 4.93423C9.58496 4.93423 8.42094 5.1178 7.71022 5.35968C6.93934 5.62203 6.52923 5.84192 5.8253 6.25127C5.03828 6.70895 4.6072 7.00029 3.9302 7.60901C3.06322 8.38854 2.59303 8.88663 2.01476 9.89903C1.44359 10.899 1.23997 11.5449 1.02143 12.6755Z" stroke="white" stroke-width="1.2" stroke-linejoin="round"/>
</svg>
