<svg width="41" height="41" viewBox="0 0 41 41" fill="none" xmlns="http://www.w3.org/2000/svg">
<mask id="path-1-inside-1_58_342" fill="white">
<path d="M9 26C9 22.134 12.134 19 16 19H25C28.866 19 32 22.134 32 26V34C32 34.5523 31.5523 35 31 35H10C9.44772 35 9 34.5523 9 34V26Z"/>
</mask>
<path d="M6.5 26C6.5 20.7533 10.7533 16.5 16 16.5H25C30.2467 16.5 34.5 20.7533 34.5 26H29.5C29.5 23.5147 27.4853 21.5 25 21.5H16C13.5147 21.5 11.5 23.5147 11.5 26H6.5ZM32 35H9H32ZM10 35C8.067 35 6.5 33.433 6.5 31.5V26C6.5 20.7533 10.7533 16.5 16 16.5V21.5C13.5147 21.5 11.5 23.5147 11.5 26V34C11.5 34.5523 11.5 35 11.5 35H10ZM25 16.5C30.2467 16.5 34.5 20.7533 34.5 26V31.5C34.5 33.433 32.933 35 31 35H29.5C29.5 35 29.5 34.5523 29.5 34V26C29.5 23.5147 27.4853 21.5 25 21.5V16.5Z" fill="white" mask="url(#path-1-inside-1_58_342)"/>
<circle cx="20.5" cy="10.5" r="6.35" stroke="white" stroke-width="2.3"/>
<circle cx="20.5" cy="20.5" r="20" stroke="#303845"/>
</svg>
