<svg width="15" height="9" viewBox="0 0 15 9" fill="none" xmlns="http://www.w3.org/2000/svg">
<path d="M14.657 4.10887C9.862 -1.36963 4.8855 -1.36963 0.0925 4.10887C0.035 4.17437 0 4.26137 0 4.35587C0 4.45037 0.035 4.53737 0.093 4.60337C2.4895 7.34287 4.939 8.73087 7.374 8.73087C9.8085 8.73087 12.26 7.34237 14.6565 4.60287C14.7145 4.53737 14.7495 4.45087 14.7495 4.35587C14.7495 4.26087 14.7145 4.17437 14.656 4.10837L14.657 4.10887ZM0.877 4.35587C5.229 -0.457133 9.5225 -0.455132 13.873 4.35587C9.5215 9.16637 5.2275 9.16637 0.877 4.35587ZM7.375 1.98087C6.0635 1.98087 5 3.04437 5 4.35587C5 5.66737 6.0635 6.73087 7.375 6.73087C8.6865 6.73087 9.75 5.66737 9.75 4.35587C9.7485 3.04487 8.686 1.98237 7.375 1.98087ZM7.375 5.98087C6.4775 5.98087 5.75 5.25337 5.75 4.35587C5.75 3.45837 6.4775 2.73087 7.375 2.73087C8.2725 2.73087 9 3.45837 9 4.35587C8.999 5.25287 8.272 5.97987 7.375 5.98087Z" fill="#515966"/>
<path d="M7.375 5.98087C6.4775 5.98087 5.75 5.25337 5.75 4.35587C5.75 3.45837 6.4775 2.73087 7.375 2.73087C8.2725 2.73087 9 3.45837 9 4.35587C8.999 5.25287 8.272 5.97987 7.375 5.98087Z" fill="#515966"/>
</svg>
