<svg width="18" height="20" viewBox="0 0 18 20" fill="none" xmlns="http://www.w3.org/2000/svg">
<path d="M9.5 2.56128V6.56128M9.5 2.56128C9.5 2.56128 7.42504 0.636267 6 1.06128C4.9415 1.37697 4.33364 2.0083 4 3.06128C3.5616 4.44488 5.25 6.56128 5.25 6.56128M9.5 2.56128C9.5 2.56128 11.2223 0.77277 12.5 1.06128C13.5774 1.30457 14.145 2.01533 14.5 3.06128C14.9569 4.40737 13.5 6.56128 13.5 6.56128M9.5 18.5613H17.2C17.3657 18.5613 17.5 18.427 17.5 18.2613V10.5613M9.5 18.5613V10.5613M9.5 18.5613H1.3C1.13431 18.5613 1 18.427 1 18.2613V10.5613M9.5 6.56128V10.5613M9.5 6.56128H5.25M9.5 6.56128H13.5M9.5 10.5613H17.5M9.5 10.5613H1M17.5 10.5613V6.86128C17.5 6.69559 17.3657 6.56128 17.2 6.56128H13.5M1 10.5613V6.86128C1 6.69559 1.13431 6.56128 1.3 6.56128H5.25" stroke="#717783" stroke-linecap="round" stroke-linejoin="round"/>
</svg>
