<svg width="206" height="15" viewBox="0 0 206 15" fill="none" xmlns="http://www.w3.org/2000/svg">
<path d="M1 7.5L7.5 1L14 7.5L7.5 14L1 7.5Z" stroke="#D3D7E2" stroke-linecap="round" stroke-linejoin="round"/>
<path d="M15 7.5H51.9982M51.9982 7.5L55.4982 4L59.4982 7.5L55.9982 11L52.4982 8L51.9982 7.5Z" stroke="#313842" stroke-linecap="round" stroke-linejoin="round"/>
<path d="M59.5 7.5H101M101 7.5L104 4.5L108 7.5L104.5 11L101 8V7.5Z" stroke="#313842" stroke-linecap="round" stroke-linejoin="round"/>
<path d="M156.5 7.5L197.5 8M197.5 8L201.5 4L205.5 7.5L201.5 11L197.5 8Z" stroke="#313842" stroke-linecap="round" stroke-linejoin="round"/>
<path d="M108 7.5H148.5M148.5 7.5L152.5 4L156.5 7.5L152.5 11.5L148.5 7.5Z" stroke="#313842" stroke-linecap="round" stroke-linejoin="round"/>
</svg>
