<svg width="25" height="25" viewBox="0 0 25 25" fill="none" xmlns="http://www.w3.org/2000/svg">
<path d="M9.56 5.36L12.5 2L15.44 5.36H20.06V9.56L23 12.92L20.06 15.86V20.06H15.44L12.5 23L9.56 20.06H4.94V15.86L2 12.92L4.94 9.98V5.36H9.56Z" stroke="#F2BA0D" stroke-width="2"/>
<path d="M18.0518 12.4999C18.0518 15.5374 15.5893 17.9999 12.5518 17.9999C9.51419 17.9999 7.05176 15.5374 7.05176 12.4999C7.05176 9.4623 9.51419 6.99986 12.5518 6.99986C15.5893 6.99986 18.0518 9.4623 18.0518 12.4999ZM10.3504 12.4999C11.5876 13.7846 11.5876 13.7846 12.5518 14.7013C13.421 13.7846 13.421 13.7846 14.7531 12.4999C13.8793 11.4929 13.421 11.0346 12.5518 10.2082C11.6351 11.1249 11.1768 11.5832 10.3504 12.4999Z" fill="#D9D9D9"/>
</svg>
