<svg width="34" height="36" viewBox="0 0 34 36" fill="none" xmlns="http://www.w3.org/2000/svg">
<g filter="url(#filter0_d_58_1727)">
<circle cx="12.5" cy="19.5" r="7.75" stroke="white" stroke-width="1.5" shape-rendering="crispEdges"/>
</g>
<g filter="url(#filter1_d_58_1727)">
<mask id="path-2-inside-1_58_1727" fill="white">
<path d="M24.3527 19.5103C25.6773 18.9321 26.8398 18.0386 27.7374 16.9087C28.6349 15.7789 29.2398 14.4476 29.4983 13.0329C29.7569 11.6182 29.6613 10.1637 29.2198 8.79815C28.7784 7.43264 28.0048 6.19832 26.9675 5.2045C25.9303 4.21069 24.6614 3.48806 23.2734 3.10063C21.8853 2.7132 20.4209 2.67293 19.0098 2.98339C17.5987 3.29384 16.2845 3.94544 15.1836 4.88046C14.0827 5.81548 13.2291 7.00506 12.6984 8.34383L14.0627 8.87345C14.5047 7.75841 15.2157 6.76763 16.1326 5.98887C17.0495 5.21011 18.144 4.6674 19.3193 4.40883C20.4946 4.15026 21.7143 4.1838 22.8704 4.50648C24.0265 4.82916 25.0833 5.43102 25.9472 6.25875C26.8111 7.08648 27.4554 8.11453 27.8231 9.25184C28.1907 10.3891 28.2704 11.6006 28.0551 12.7789C27.8397 13.9572 27.3359 15.066 26.5884 16.007C25.8408 16.948 24.8725 17.6922 23.7693 18.1738L24.3527 19.5103Z"/>
</mask>
<path d="M24.3527 19.5103C25.6773 18.9321 26.8398 18.0386 27.7374 16.9087C28.6349 15.7789 29.2398 14.4476 29.4983 13.0329C29.7569 11.6182 29.6613 10.1637 29.2198 8.79815C28.7784 7.43264 28.0048 6.19832 26.9675 5.2045C25.9303 4.21069 24.6614 3.48806 23.2734 3.10063C21.8853 2.7132 20.4209 2.67293 19.0098 2.98339C17.5987 3.29384 16.2845 3.94544 15.1836 4.88046C14.0827 5.81548 13.2291 7.00506 12.6984 8.34383L14.0627 8.87345C14.5047 7.75841 15.2157 6.76763 16.1326 5.98887C17.0495 5.21011 18.144 4.6674 19.3193 4.40883C20.4946 4.15026 21.7143 4.1838 22.8704 4.50648C24.0265 4.82916 25.0833 5.43102 25.9472 6.25875C26.8111 7.08648 27.4554 8.11453 27.8231 9.25184C28.1907 10.3891 28.2704 11.6006 28.0551 12.7789C27.8397 13.9572 27.3359 15.066 26.5884 16.007C25.8408 16.948 24.8725 17.6922 23.7693 18.1738L24.3527 19.5103Z" stroke="white" stroke-width="3" shape-rendering="crispEdges" mask="url(#path-2-inside-1_58_1727)"/>
</g>
<rect x="13" y="16" width="5.38895" height="5.68439" rx="1" transform="rotate(43.6518 13 16)" fill="#FCD434"/>
<defs>
<filter id="filter0_d_58_1727" x="0" y="11" width="25" height="25" filterUnits="userSpaceOnUse" color-interpolation-filters="sRGB">
<feFlood flood-opacity="0" result="BackgroundImageFix"/>
<feColorMatrix in="SourceAlpha" type="matrix" values="0 0 0 0 0 0 0 0 0 0 0 0 0 0 0 0 0 0 127 0" result="hardAlpha"/>
<feOffset dy="4"/>
<feGaussianBlur stdDeviation="2"/>
<feComposite in2="hardAlpha" operator="out"/>
<feColorMatrix type="matrix" values="0 0 0 0 0 0 0 0 0 0 0 0 0 0 0 0 0 0 0.25 0"/>
<feBlend mode="normal" in2="BackgroundImageFix" result="effect1_dropShadow_58_1727"/>
<feBlend mode="normal" in="SourceGraphic" in2="effect1_dropShadow_58_1727" result="shape"/>
</filter>
<filter id="filter1_d_58_1727" x="8.69843" y="2.77698" width="24.9419" height="24.7333" filterUnits="userSpaceOnUse" color-interpolation-filters="sRGB">
<feFlood flood-opacity="0" result="BackgroundImageFix"/>
<feColorMatrix in="SourceAlpha" type="matrix" values="0 0 0 0 0 0 0 0 0 0 0 0 0 0 0 0 0 0 127 0" result="hardAlpha"/>
<feOffset dy="4"/>
<feGaussianBlur stdDeviation="2"/>
<feComposite in2="hardAlpha" operator="out"/>
<feColorMatrix type="matrix" values="0 0 0 0 0 0 0 0 0 0 0 0 0 0 0 0 0 0 0.25 0"/>
<feBlend mode="normal" in2="BackgroundImageFix" result="effect1_dropShadow_58_1727"/>
<feBlend mode="normal" in="SourceGraphic" in2="effect1_dropShadow_58_1727" result="shape"/>
</filter>
</defs>
</svg>
