<svg width="49" height="48" viewBox="0 0 49 48" fill="none" xmlns="http://www.w3.org/2000/svg">
<rect x="0.5" width="48" height="48" rx="14" fill="#29313C"/>
<mask id="path-2-inside-1_58_1732" fill="white">
<path d="M14.5 32C14.5 28.134 17.6341 25 21.5 25C25.366 25 28.5 28.134 28.5 32V35H14.5V32Z"/>
</mask>
<path d="M13.5 32C13.5 27.5817 17.0818 24 21.5 24C25.9183 24 29.5 27.5817 29.5 32H27.5C27.5 28.6863 24.8138 26 21.5 26C18.1863 26 15.5 28.6863 15.5 32H13.5ZM28.5 35H14.5H28.5ZM13.5 35V32C13.5 27.5817 17.0818 24 21.5 24V26C18.1863 26 15.5 28.6863 15.5 32V35H13.5ZM21.5 24C25.9183 24 29.5 27.5817 29.5 32V35H27.5V32C27.5 28.6863 24.8138 26 21.5 26V24Z" fill="white" mask="url(#path-2-inside-1_58_1732)"/>
<circle cx="21" cy="18.5" r="3.95" stroke="white" stroke-width="1.1"/>
<path d="M31.5054 21V28.5" stroke="#FCD434" stroke-linecap="round"/>
<path d="M35.5107 24.6582L27.5002 24.763" stroke="#FCD434" stroke-linecap="round"/>
</svg>
