<svg width="23" height="21" viewBox="0 0 23 21" fill="none" xmlns="http://www.w3.org/2000/svg">
<mask id="path-1-inside-1_58_1733" fill="white">
<path d="M0.500046 18C0.500046 14.134 3.63405 11 7.50005 11C11.366 11 14.5 14.134 14.5 18V21H0.500046V18Z"/>
</mask>
<path d="M-0.499954 18C-0.499954 13.5817 3.08177 10 7.50005 10C11.9183 10 15.5 13.5817 15.5 18H13.5C13.5 14.6863 10.8138 12 7.50005 12C4.18634 12 1.50005 14.6863 1.50005 18H-0.499954ZM14.5 21H0.500046H14.5ZM-0.499954 21V18C-0.499954 13.5817 3.08177 10 7.50005 10V12C4.18634 12 1.50005 14.6863 1.50005 18V21H-0.499954ZM7.50005 10C11.9183 10 15.5 13.5817 15.5 18V21H13.5V18C13.5 14.6863 10.8138 12 7.50005 12V10Z" fill="white" mask="url(#path-1-inside-1_58_1733)"/>
<circle cx="7" cy="4.5" r="3.95" stroke="white" stroke-width="1.1"/>
<path d="M17.5054 7V14.5" stroke="#FCD434" stroke-linecap="round"/>
<path d="M21.5107 10.6582L13.5002 10.763" stroke="#FCD434" stroke-linecap="round"/>
</svg>
