<svg width="48" height="48" viewBox="0 0 48 48" fill="none" xmlns="http://www.w3.org/2000/svg">
<rect width="48" height="48" rx="14" fill="#29313C"/>
<path d="M21.56 17.36L24.5 14L27.44 17.36H32.06V21.56L35 24.92L32.06 27.86V32.06H27.44L24.5 35L21.56 32.06H16.94V27.86L14 24.92L16.94 21.98V17.36H21.56Z" stroke="#F2BA0D" stroke-width="2"/>
<path d="M30.0518 24.4999C30.0518 27.5374 27.5893 29.9999 24.5518 29.9999C21.5142 29.9999 19.0518 27.5374 19.0518 24.4999C19.0518 21.4623 21.5142 18.9999 24.5518 18.9999C27.5893 18.9999 30.0518 21.4623 30.0518 24.4999ZM22.3504 24.4999C23.5876 25.7846 23.5876 25.7846 24.5518 26.7013C25.421 25.7846 25.421 25.7846 26.7531 24.4999C25.8793 23.4929 25.421 23.0346 24.5518 22.2082C23.6351 23.1249 23.1768 23.5832 22.3504 24.4999Z" fill="#D9D9D9"/>
</svg>
