<svg width="49" height="48" viewBox="0 0 49 48" fill="none" xmlns="http://www.w3.org/2000/svg">
<rect x="0.5" width="48" height="48" rx="14" fill="#29313C"/>
<g filter="url(#filter0_d_58_1726)">
<circle cx="18.5" cy="29.5" r="7.75" stroke="white" stroke-width="1.5" shape-rendering="crispEdges"/>
</g>
<g filter="url(#filter1_d_58_1726)">
<mask id="path-3-inside-1_58_1726" fill="white">
<path d="M30.3527 29.5103C31.6773 28.9321 32.8398 28.0386 33.7374 26.9087C34.6349 25.7789 35.2398 24.4476 35.4983 23.0329C35.7569 21.6182 35.6613 20.1637 35.2198 18.7981C34.7784 17.4326 34.0048 16.1983 32.9675 15.2045C31.9303 14.2107 30.6614 13.4881 29.2734 13.1006C27.8853 12.7132 26.4209 12.6729 25.0098 12.9834C23.5987 13.2938 22.2845 13.9454 21.1836 14.8805C20.0827 15.8155 19.2291 17.0051 18.6984 18.3438L20.0627 18.8734C20.5047 17.7584 21.2157 16.7676 22.1326 15.9889C23.0495 15.2101 24.144 14.6674 25.3193 14.4088C26.4946 14.1503 27.7143 14.1838 28.8704 14.5065C30.0265 14.8292 31.0833 15.431 31.9472 16.2588C32.8111 17.0865 33.4554 18.1145 33.8231 19.2518C34.1907 20.3891 34.2704 21.6006 34.0551 22.7789C33.8397 23.9572 33.3359 25.066 32.5884 26.007C31.8408 26.948 30.8725 27.6922 29.7693 28.1738L30.3527 29.5103Z"/>
</mask>
<path d="M30.3527 29.5103C31.6773 28.9321 32.8398 28.0386 33.7374 26.9087C34.6349 25.7789 35.2398 24.4476 35.4983 23.0329C35.7569 21.6182 35.6613 20.1637 35.2198 18.7981C34.7784 17.4326 34.0048 16.1983 32.9675 15.2045C31.9303 14.2107 30.6614 13.4881 29.2734 13.1006C27.8853 12.7132 26.4209 12.6729 25.0098 12.9834C23.5987 13.2938 22.2845 13.9454 21.1836 14.8805C20.0827 15.8155 19.2291 17.0051 18.6984 18.3438L20.0627 18.8734C20.5047 17.7584 21.2157 16.7676 22.1326 15.9889C23.0495 15.2101 24.144 14.6674 25.3193 14.4088C26.4946 14.1503 27.7143 14.1838 28.8704 14.5065C30.0265 14.8292 31.0833 15.431 31.9472 16.2588C32.8111 17.0865 33.4554 18.1145 33.8231 19.2518C34.1907 20.3891 34.2704 21.6006 34.0551 22.7789C33.8397 23.9572 33.3359 25.066 32.5884 26.007C31.8408 26.948 30.8725 27.6922 29.7693 28.1738L30.3527 29.5103Z" stroke="white" stroke-width="3" shape-rendering="crispEdges" mask="url(#path-3-inside-1_58_1726)"/>
</g>
<rect x="19" y="26" width="5.38895" height="5.68439" rx="1" transform="rotate(43.6518 19 26)" fill="#FCD434"/>
<defs>
<filter id="filter0_d_58_1726" x="6" y="21" width="25" height="25" filterUnits="userSpaceOnUse" color-interpolation-filters="sRGB">
<feFlood flood-opacity="0" result="BackgroundImageFix"/>
<feColorMatrix in="SourceAlpha" type="matrix" values="0 0 0 0 0 0 0 0 0 0 0 0 0 0 0 0 0 0 127 0" result="hardAlpha"/>
<feOffset dy="4"/>
<feGaussianBlur stdDeviation="2"/>
<feComposite in2="hardAlpha" operator="out"/>
<feColorMatrix type="matrix" values="0 0 0 0 0 0 0 0 0 0 0 0 0 0 0 0 0 0 0.25 0"/>
<feBlend mode="normal" in2="BackgroundImageFix" result="effect1_dropShadow_58_1726"/>
<feBlend mode="normal" in="SourceGraphic" in2="effect1_dropShadow_58_1726" result="shape"/>
</filter>
<filter id="filter1_d_58_1726" x="14.6984" y="12.777" width="24.9419" height="24.7333" filterUnits="userSpaceOnUse" color-interpolation-filters="sRGB">
<feFlood flood-opacity="0" result="BackgroundImageFix"/>
<feColorMatrix in="SourceAlpha" type="matrix" values="0 0 0 0 0 0 0 0 0 0 0 0 0 0 0 0 0 0 127 0" result="hardAlpha"/>
<feOffset dy="4"/>
<feGaussianBlur stdDeviation="2"/>
<feComposite in2="hardAlpha" operator="out"/>
<feColorMatrix type="matrix" values="0 0 0 0 0 0 0 0 0 0 0 0 0 0 0 0 0 0 0.25 0"/>
<feBlend mode="normal" in2="BackgroundImageFix" result="effect1_dropShadow_58_1726"/>
<feBlend mode="normal" in="SourceGraphic" in2="effect1_dropShadow_58_1726" result="shape"/>
</filter>
</defs>
</svg>
