<svg width="23" height="21" viewBox="0 0 23 21" fill="none" xmlns="http://www.w3.org/2000/svg">
<path d="M5.8125 15.75H7.5625V17.5H18.0625V3.5H7.5625V5.25H5.8125V2.625C5.8125 2.38 5.89708 2.17292 6.06625 2.00375C6.23542 1.83458 6.4425 1.75 6.6875 1.75H18.9375C19.1825 1.75 19.3896 1.83458 19.5588 2.00375C19.7279 2.17292 19.8125 2.38 19.8125 2.625V18.375C19.8125 18.62 19.7279 18.8271 19.5588 18.9963C19.3896 19.1654 19.1825 19.25 18.9375 19.25H6.6875C6.4425 19.25 6.23542 19.1654 6.06625 18.9963C5.89708 18.8271 5.8125 18.62 5.8125 18.375V15.75ZM7.5625 9.625H13.6875V11.375H7.5625V14L3.1875 10.5L7.5625 7V9.625Z" fill="#EF4444"/>
</svg>
