<svg width="26" height="20" viewBox="0 0 26 20" fill="none" xmlns="http://www.w3.org/2000/svg">
<path d="M10.2121 9.78787L12.7879 7.21213C12.905 7.09497 13.095 7.09497 13.2121 7.21213L15.7879 9.78787C15.905 9.90503 15.905 10.095 15.7879 10.2121L13.2121 12.7879C13.095 12.905 12.905 12.905 12.7879 12.7879L10.2121 10.2121C10.095 10.095 10.095 9.90503 10.2121 9.78787Z" stroke="#868E9B" stroke-width="1.5"/>
<path d="M7 10L4.68563 12.7773C4.58854 12.8938 4.40999 12.895 4.31129 12.7799V12.7799M1.5 9.50004C2.59788 10.7809 4.31129 12.7799 4.31129 12.7799M4.31129 12.7799C4.31129 12.7799 3.96696 9.79047 4.5 8.00004C4.87375 6.74464 5.25442 6.07699 6 5.00004C6.9431 3.63779 7.56145 2.82207 9 2.00004C10.0722 1.38733 10.7684 1.09068 12 1.00004C13.1171 0.917825 15.2402 1.43538 15.4782 1.49453C15.4933 1.4983 15.5069 1.50294 15.5212 1.50915C15.722 1.59596 17.3061 2.28725 18.5 3.00004" stroke="#868E9B" stroke-width="1.5"/>
<path d="M19.5 9.99996L21.8144 7.22272C21.9115 7.10621 22.09 7.10497 22.1887 7.22012V7.22012M25 10.5C23.9021 9.2191 22.1887 7.22012 22.1887 7.22012M22.1887 7.22012C22.1887 7.22012 22.533 10.2095 22 12C21.6262 13.2554 21.2456 13.923 20.5 15C19.5569 16.3622 18.9386 17.1779 17.5 18C16.4278 18.6127 15.7316 18.9093 14.5 19C13.3829 19.0822 11.2598 18.5646 11.0218 18.5055C11.0067 18.5017 10.9931 18.4971 10.9788 18.4909C10.778 18.404 9.19387 17.7128 8 17" stroke="#868E9B" stroke-width="1.5"/>
</svg>
