<svg width="19" height="18" viewBox="0 0 19 18" fill="none" xmlns="http://www.w3.org/2000/svg">
<path d="M12 3.82353V1.2C12 1.08954 11.9105 1 11.8 1H1.2C1.08954 1 1 1.08954 1 1.2V4.29412M1 4.29412H12H17.8C17.9105 4.29412 18 4.38366 18 4.49412V16.8C18 16.9105 17.9105 17 17.8 17H1.2C1.08954 17 1 16.9105 1 16.8V4.29412Z" stroke="#858E9D" stroke-width="1.5"/>
<path d="M9.21213 10.7879L11.7879 8.21213C11.905 8.09497 12.095 8.09497 12.2121 8.21213L14.7879 10.7879C14.905 10.905 14.905 11.095 14.7879 11.2121L12.2121 13.7879C12.095 13.905 11.905 13.905 11.7879 13.7879L9.21213 11.2121C9.09497 11.095 9.09497 10.905 9.21213 10.7879Z" stroke="#828B9A" stroke-width="1.3"/>
</svg>
