<svg width="20" height="23" viewBox="0 0 20 23" fill="none" xmlns="http://www.w3.org/2000/svg">
    <path d="M10.9004 2H18.9004V9" stroke="white"/>
    <path d="M0.400391 12.287V10.4409C0.400391 9.11151 1.12111 7.88664 2.28318 7.24105C2.73708 6.98888 3.23943 6.83617 3.75687 6.79305L4.15594 6.75979C5.54566 6.64398 6.89224 7.2754 7.69196 8.41785C8.15306 9.07657 8.40039 9.86118 8.40039 10.6653V12.287" stroke="white" stroke-width="0.8"/>
    <circle cx="4.1144" cy="2.57143" r="2.17143" stroke="white" stroke-width="0.8"/>
    <path d="M11.4004 22.287V20.4409C11.4004 19.1115 12.1211 17.8866 13.2832 17.241C13.7371 16.9889 14.2394 16.8362 14.7569 16.793L15.1559 16.7598C16.5457 16.644 17.8922 17.2754 18.692 18.4179C19.1531 19.0766 19.4004 19.8612 19.4004 20.6653V22.287" stroke="white" stroke-width="0.8"/>
    <circle cx="15.1144" cy="12.5714" r="2.17143" stroke="white" stroke-width="0.8"/>
    <path d="M0.900391 15V20.5H8.90039" stroke="white"/>
</svg>
