<svg width="26" height="28" viewBox="0 0 26 28" fill="none" xmlns="http://www.w3.org/2000/svg">
<path fill-rule="evenodd" clip-rule="evenodd" d="M11.2448 5.88654C11.5032 6.03419 11.7173 6.24832 11.8649 6.50671L18.993 18.9808C19.4497 19.78 19.172 20.7981 18.3728 21.2547C18.121 21.3986 17.8359 21.4743 17.5459 21.4743H3.28984C2.36936 21.4743 1.62317 20.7281 1.62317 19.8077C1.62317 19.5176 1.69886 19.2326 1.84276 18.9808L8.9708 6.50671C9.42748 5.70751 10.4456 5.42985 11.2448 5.88654ZM10.3732 16.2917C9.77793 16.2917 9.3315 16.7317 9.3315 17.3183C9.3315 17.9317 9.7644 18.3717 10.3732 18.3717C10.9684 18.3717 11.4148 17.9317 11.4148 17.3317C11.4148 16.7317 10.9684 16.2917 10.3732 16.2917ZM11.2065 9.83332H9.53984V14.8333H11.2065V9.83332Z" fill="white"/>
</svg>
